<?xml version="1.0" standalone="no"?>
<!DOCTYPE svg PUBLIC "-//W3C//DTD SVG 20010904//EN"
 "http://www.w3.org/TR/2001/REC-SVG-20010904/DTD/svg10.dtd">
<svg version="1.0" xmlns="http://www.w3.org/2000/svg"
 width="1212.000000pt" height="1209.000000pt" viewBox="0 0 1212.000000 1209.000000"
 preserveAspectRatio="xMidYMid meet">
<metadata>
Created by potrace 1.10, written by Peter Selinger 2001-2011
</metadata>
<g transform="translate(0.000000,1209.000000) scale(0.100000,-0.100000)"
fill="#434242" stroke="none">
<path d="M6000 12075 c0 -8 -17 -22 -37 -30 -26 -11 -554 -533 -1798 -1778
-1466 -1467 -1764 -1770 -1783 -1812 -13 -27 -28 -59 -35 -70 -6 -11 -13 -75
-15 -142 -3 -95 0 -135 13 -180 23 -77 49 -143 56 -143 7 0 1936 1945 2434
2455 301 308 425 435 595 615 329 347 413 423 523 473 49 22 157 22 217 0 88
-33 234 -159 356 -308 27 -33 51 -62 54 -65 3 -3 21 -25 40 -50 42 -55 144
-174 185 -216 41 -41 154 -136 179 -151 54 -30 126 -63 138 -63 8 0 19 -5 25
-11 37 -37 427 -43 449 -7 4 5 -229 245 -517 532 -288 288 -607 609 -709 714
-122 126 -198 196 -223 207 -20 8 -37 22 -37 30 0 11 -13 15 -55 15 -42 0 -55
-4 -55 -15z"/>
<path d="M5270 10368 c-138 -8 -238 -45 -306 -113 -31 -31 -104 -136 -104
-150 0 -3 -10 -27 -21 -53 -35 -76 -32 -77 187 -78 104 0 952 0 1884 0 932 0
1929 0 2215 0 543 0 558 -1 653 -44 83 -39 160 -131 177 -212 4 -18 12 -39 18
-46 14 -18 12 -475 -3 -522 -15 -51 -24 -334 -11 -405 19 -113 28 -142 68
-226 31 -63 60 -103 115 -159 78 -81 214 -178 228 -164 11 12 16 1916 5 1969
-18 89 -64 147 -150 186 l-50 23 -2400 0 c-1320 1 -2447 -2 -2505 -6z"/>
<path d="M1865 10351 c-54 -25 -90 -66 -112 -126 -17 -48 -18 -159 -18 -2540
0 -2376 1 -2493 18 -2547 25 -78 63 -147 101 -184 63 -62 165 -123 228 -139
l27 -7 4 2403 c3 2231 4 2409 20 2469 69 262 186 300 930 300 371 0 409 2 465
19 93 30 142 59 202 120 57 59 134 197 128 229 -3 16 -73 17 -978 19 -931 3
-977 2 -1015 -16z"/>
<path d="M8095 9781 c-16 -5 -51 -12 -76 -15 -26 -4 -55 -13 -65 -21 -18 -12
100 -133 1583 -1617 881 -882 1614 -1617 1630 -1633 15 -17 54 -59 86 -94 62
-67 167 -204 167 -218 0 -4 8 -21 17 -38 11 -20 17 -53 17 -100 0 -98 -42
-180 -162 -320 -90 -104 -308 -328 -426 -438 -72 -67 -150 -144 -172 -170 -58
-67 -106 -169 -115 -242 -8 -64 6 -214 22 -230 5 -5 9 -15 9 -22 0 -22 34 -93
45 -93 6 0 145 138 310 307 319 328 667 676 912 913 98 95 158 161 172 190 46
95 18 194 -87 302 -31 33 -277 279 -546 546 -539 537 -2342 2343 -2623 2627
-241 244 -245 247 -375 319 -73 39 -256 66 -323 47z"/>
<path d="M1415 7426 c-86 -91 -336 -357 -496 -526 -76 -80 -146 -155 -156
-167 -20 -22 -223 -239 -303 -322 -25 -26 -106 -112 -180 -192 -74 -79 -162
-172 -194 -207 l-60 -63 1770 -1768 c1140 -1139 1789 -1781 1824 -1803 30 -20
76 -45 101 -56 118 -54 379 -30 379 35 0 8 -16 46 -37 85 -27 52 -59 92 -127
157 -87 83 -602 598 -1526 1526 -565 568 -961 959 -1255 1240 -440 420 -497
489 -524 636 -8 47 -7 67 8 115 10 33 24 70 31 84 46 87 223 276 355 380 39
30 72 57 75 60 3 3 37 30 75 61 176 140 275 266 323 410 36 107 26 363 -14
376 -5 2 -37 -25 -69 -61z"/>
<path d="M9977 4993 c-5 -2611 -1 -2488 -84 -2660 -82 -170 -235 -210 -823
-217 -354 -4 -440 -12 -550 -51 -122 -44 -261 -206 -286 -335 l-6 -30 979 0
c955 0 982 1 1025 20 56 25 93 61 121 120 l22 45 5 2100 c8 3126 10 2853 -31
2978 -45 135 -116 210 -270 285 -36 18 -73 32 -82 32 -15 0 -16 -183 -20
-2287z"/>
<path d="M2875 7148 c-3 -7 -4 -524 -3 -1148 l3 -1135 124 -3 c82 -2 128 1
137 9 12 9 14 97 14 515 l0 503 22 15 c18 13 97 15 562 16 356 0 544 4 551 11
12 12 14 234 2 245 -5 5 -255 9 -556 9 -443 1 -552 3 -565 14 -14 12 -16 51
-16 326 0 201 4 323 11 344 l11 31 96 2 c54 1 334 2 624 2 364 1 530 4 538 12
7 7 10 52 8 125 l-3 114 -778 3 c-617 2 -779 0 -782 -10z"/>
<path d="M4887 7153 c-4 -3 -7 -515 -7 -1138 0 -866 3 -1134 12 -1143 8 -8 50
-12 123 -12 73 0 115 4 123 12 9 9 12 232 12 942 0 606 4 936 10 946 9 13 12
12 22 -5 22 -36 58 -130 58 -150 0 -11 6 -29 14 -40 7 -11 16 -40 20 -65 4
-25 13 -54 21 -66 19 -29 105 -294 105 -323 0 -8 6 -22 14 -30 17 -19 55 -121
65 -176 4 -22 12 -49 18 -60 6 -11 14 -38 18 -60 4 -22 13 -51 21 -65 12 -23
22 -47 52 -135 24 -68 52 -171 52 -187 0 -9 6 -23 13 -30 16 -16 56 -120 67
-175 5 -24 16 -56 25 -72 8 -17 15 -39 15 -49 0 -11 9 -31 20 -45 11 -13 25
-49 31 -78 18 -86 23 -89 164 -89 l123 0 26 35 c15 19 34 58 42 85 8 28 21 71
29 98 8 26 23 76 33 112 10 36 25 76 34 90 9 14 25 59 37 100 12 41 26 89 32
105 6 17 14 49 18 72 5 24 15 51 25 61 15 18 25 46 57 162 7 25 20 63 31 86
10 22 18 50 18 61 0 11 8 31 19 44 10 13 23 44 29 69 31 128 61 221 93 282 10
20 19 44 19 53 0 8 9 41 20 72 11 32 20 70 20 85 0 15 4 30 10 33 5 3 17 30
25 60 9 29 22 59 30 65 8 7 17 27 21 46 5 30 19 52 26 42 2 -2 5 -433 8 -958
l5 -955 121 -3 c94 -2 124 1 133 11 8 11 10 304 9 1148 l-3 1134 -201 3 c-153
2 -204 -1 -211 -10 -21 -26 -123 -315 -123 -348 0 -9 -17 -57 -38 -106 -21
-49 -48 -125 -61 -169 -13 -44 -33 -102 -46 -130 -21 -45 -35 -89 -82 -255 -8
-30 -25 -77 -38 -105 -23 -50 -42 -106 -85 -260 -13 -44 -31 -96 -40 -115 -10
-19 -28 -69 -40 -110 -13 -41 -28 -91 -35 -110 -7 -19 -16 -53 -19 -75 -4 -22
-16 -49 -26 -60 -10 -11 -21 -30 -25 -43 -12 -40 -29 -19 -61 74 -17 49 -36
98 -42 109 -14 25 -52 139 -52 158 0 26 -51 172 -66 188 -7 8 -17 31 -20 50
-7 36 -49 161 -82 244 -28 71 -38 99 -62 190 -12 44 -30 97 -41 117 -10 20
-19 43 -19 50 -1 7 -9 31 -20 53 -11 22 -19 49 -20 59 0 22 -33 129 -60 196
-47 116 -58 148 -65 185 -4 22 -10 45 -15 50 -4 6 -11 28 -15 50 -9 50 -40
111 -60 119 -22 8 -400 8 -408 -1z"/>
<path d="M7627 7154 c-4 -4 -7 -519 -7 -1145 0 -1027 2 -1137 16 -1143 9 -3
66 -6 128 -6 86 0 117 4 134 16 l23 16 -1 377 c-2 430 -3 423 76 487 27 21 51
43 53 48 2 5 19 23 38 40 18 17 64 61 102 99 70 70 99 81 126 50 47 -55 108
-139 127 -176 12 -23 37 -57 54 -75 18 -18 45 -58 60 -88 15 -29 38 -61 51
-69 12 -9 23 -22 23 -29 0 -7 7 -19 15 -26 8 -7 25 -33 37 -57 13 -25 32 -52
44 -59 11 -8 30 -34 42 -58 12 -24 40 -64 62 -89 22 -25 40 -49 40 -53 0 -11
67 -108 118 -172 23 -29 42 -58 42 -65 0 -7 21 -36 48 -65 l47 -52 166 0 c192
0 205 5 164 61 -13 19 -46 66 -72 104 -26 39 -51 72 -56 74 -12 5 -24 20 -73
96 -25 39 -53 77 -63 85 -10 8 -27 31 -37 50 -10 19 -38 58 -61 87 -24 28 -43
53 -43 56 0 10 -90 140 -105 151 -7 6 -25 34 -39 61 -32 62 -45 78 -73 94 -13
6 -23 18 -23 26 0 9 -16 38 -35 65 -19 27 -35 52 -35 55 0 3 -15 21 -34 39
-18 19 -44 55 -56 81 -13 26 -36 55 -51 64 -16 9 -31 28 -34 43 -4 15 -13 32
-21 39 -8 6 -14 23 -14 38 0 32 45 101 65 101 8 0 33 24 56 52 23 29 54 60 69
70 16 9 43 37 62 62 18 25 38 45 44 46 14 0 54 37 81 76 12 17 40 43 62 58 21
15 52 45 67 67 14 21 31 39 37 39 9 0 112 98 182 173 11 11 29 29 40 39 64 57
135 131 135 141 0 4 -88 7 -195 7 l-195 0 -23 -27 c-12 -15 -45 -49 -73 -77
-28 -28 -59 -63 -69 -78 -9 -16 -23 -28 -30 -28 -14 0 -77 -66 -95 -99 -6 -12
-17 -21 -25 -21 -13 0 -95 -86 -95 -101 0 -4 -8 -10 -18 -13 -11 -4 -36 -25
-58 -47 -21 -23 -57 -58 -78 -78 -22 -20 -49 -47 -60 -60 -12 -14 -28 -31 -36
-38 -35 -32 -170 -172 -205 -212 -5 -7 -37 -37 -69 -69 -32 -31 -66 -64 -74
-72 -46 -46 -81 -70 -96 -64 -14 6 -16 58 -17 518 -1 281 -4 522 -8 536 -7 25
-7 25 -142 28 -74 1 -138 -1 -142 -4z"/>
<path d="M9673 4069 c-44 -22 -88 -58 -155 -127 -51 -53 -320 -322 -598 -598
-1134 -1126 -1714 -1709 -2025 -2034 -420 -440 -504 -525 -563 -568 -151 -111
-263 -143 -372 -107 -133 45 -231 124 -419 335 -252 284 -396 416 -501 463
-120 53 -210 65 -360 47 -58 -6 -140 -15 -183 -20 -42 -4 -80 -9 -83 -12 -2
-3 33 -38 78 -78 46 -40 110 -98 143 -129 34 -31 94 -86 135 -122 234 -208
420 -376 530 -479 69 -65 137 -128 151 -141 15 -13 109 -104 210 -201 229
-219 221 -213 286 -244 73 -34 134 -34 208 1 50 24 261 232 1781 1754 949 949
1737 1744 1752 1766 15 22 30 42 33 45 10 9 40 74 61 135 17 48 21 83 21 175
-1 181 -15 196 -130 139z"/>
<path d="M1738 3853 c-3 -4 -4 -447 -3 -983 l2 -975 21 -42 c27 -52 87 -112
121 -120 14 -3 32 -11 40 -17 10 -8 688 -12 2475 -14 2180 -2 2466 -1 2508 13
26 8 53 15 60 15 38 1 149 73 204 131 59 64 134 191 134 229 0 16 -90 17
-1384 24 -1423 8 -2369 3 -2956 -15 -289 -8 -352 -8 -455 6 -139 18 -194 36
-267 85 -67 44 -111 116 -133 218 -19 82 -17 166 5 342 15 112 6 686 -12 759
-37 162 -101 246 -229 305 -85 39 -125 51 -131 39z"/>
</g>
</svg>
